<?xml version="1.0" encoding="UTF-8"?>
<svg id="Layer_1" data-name="Layer 1" xmlns="http://www.w3.org/2000/svg" viewBox="0 0 256 256">
  <defs>
    <style>
      .cls-1 {
        fill: none;
        stroke: #000;
        stroke-miterlimit: 10;
        stroke-width: 5px;
      }

      .cls-2 {
        opacity: .14;
      }

      .cls-3 {
        fill: #fff;
        opacity: .15;
      }

      .cls-4 {
        fill: #ff80c0;
      }
    </style>
  </defs>
  <g>
    <path class="cls-4" d="M243.91,154.21c-1.45,3.66-5.16,3.07-8.22,2.87-3.18-.18-6.3-.55-9.37-1.11-11.68-2.12-22.49-6.91-31.85-14.05-1.32-1.01-2.64-1.97-3.95-2.9-.65-.45-1.3-.9-1.94-1.33-1.86-1.24-3.74-2.41-5.62-3.48-.32-.19-.65-.37-.99-.55-.49-.29-.99-.55-1.49-.8-.59-.32-1.19-.62-1.78-.91l-.2-.1c-.49-.24-.98-.47-1.49-.69-.58-.27-1.16-.53-1.75-.77-.26-.12-.52-.22-.79-.33-.39-.16-.78-.31-1.17-.46-.27-.11-.54-.21-.81-.3-.45-.16-.91-.32-1.35-.48-1.45-.49-2.9-.93-4.38-1.29-.37-.09-.74-.18-1.12-.27-.37-.09-.74-.17-1.11-.24-.38-.09-.76-.16-1.14-.22-.38-.07-.75-.14-1.14-.2-.38-.06-.76-.13-1.14-.18-.58-.08-1.16-.15-1.74-.21s-1.17-.11-1.75-.16c-.55-.03-1.1-.07-1.65-.09-.64-.02-1.28-.04-1.92-.06-1.6-.01-3.23,.05-4.89,.17-.46,.05-.91,.08-1.38,.13-.37,.04-.75,.08-1.13,.13-.42,.05-.85,.1-1.28,.16-.61,.09-1.23,.19-1.84,.29-.06,0-.11,.02-.17,.03-.63,.1-1.25,.22-1.88,.35-11.72,2.36-23.62-2.88-32.64-11.07-.41-.38-.84-.74-1.25-1.1-.84-.72-1.69-1.4-2.54-2.02-.85-.63-1.71-1.21-2.57-1.76s-1.74-1.06-2.62-1.53c-.44-.24-.88-.46-1.32-.68-.5-.24-1-.48-1.51-.69h-.02c-.4-.18-.81-.36-1.22-.51-.17-.07-.35-.13-.52-.2-.44-.17-.88-.33-1.33-.48-.47-.15-.94-.3-1.42-.44-.13-.04-.27-.09-.42-.13-.36-.1-.72-.19-1.07-.28-.61-.16-1.22-.3-1.85-.42-.49-.09-.98-.19-1.46-.26-.14-.03-.3-.05-.44-.07-.35-.06-.69-.1-1.04-.15-2.31-.29-4.7-.4-7.16-.35-1.17,.02-2.35,.09-3.57,.19-1.2,.09-2.42,.23-3.67,.39-2.98,.39-5.96,.7-8.95,.88-1,.06-1.99,.11-2.98,.14-2.49,.08-4.97,.08-7.45,0-.5-.02-.99-.04-1.49-.07-1-.05-1.98-.12-2.97-.2-.55-.05-1.12-.1-1.68-.16-1.17-.11-2.32-.25-3.48-.43-.51-.07-1.02-.15-1.52-.23-.55-.09-1.11-.18-1.66-.29-.88-.15-1.76-.33-2.63-.53-.4-.09-.81-.17-1.21-.27-.63-.14-1.27-.29-1.89-.47-.41-.1-.81-.21-1.21-.32-.34-.09-.68-.18-1.01-.28-.43-.12-.85-.25-1.27-.38-.35-.1-.7-.21-1.05-.32-1.5-.48-2.99-1.01-4.47-1.6-.54-.21-1.07-.42-1.61-.65-.53-.23-1.07-.45-1.61-.69-3.76-1.68-9.27-2.55-8.99-8.24,.01-.33,.06-.64,.12-.92,.48-.19,13.41-5.09,23.53-11.51,1.83-1.04,3.66-2.07,5.49-3.11,4.32-2.11,8.35-4.26,12.01-6.35,0,0,.01,0,.04-.02,.8-.46,1.59-.92,2.36-1.37,4.26-2.75,8.15-5.4,11.89-7.84l.65-.43,.07-.05c6.69-4.36,12.9-8.05,19.83-10.48,17.68-6.22,30.65-2.46,42.34,12.2,1.37,1.72,2.99,3.3,4.03,5.2,4.12,7.39,9.51,7.28,16.65,4.18,24.69-10.74,40.92-5.58,55,17.52,4.25,6.99,7.74,14.44,11.36,21.79,0,.01,0,.02,0,.02,.74,1.51,1.49,3.01,2.25,4.51,.32,.64,.66,1.28,.98,1.91,0,0,0,.01,0,.03,2.36,4.58,4.78,9.12,7.44,13.5,4.41,7.73,10.11,17.2,15.14,23.93v.02Z"/>
    <path class="cls-3" d="M218.1,110.3c-5.89-11.33-35.72-32.83-58.39-28.44-13.1,2.53-26.71,.1-39.98-17.42-13.07-17.25-64.18,4.41-65.81,5.11l14.25-9.21,.65-.43,.07-.05c6.69-4.36,12.9-8.05,19.83-10.48,17.68-6.22,30.65-2.46,42.34,12.2,1.37,1.72,2.99,3.3,4.03,5.2,4.12,7.39,9.51,7.28,16.65,4.18,24.69-10.74,40.92-5.58,55,17.52,4.25,6.99,7.74,14.44,11.36,21.79,0,.01,0,.02,0,.02Z"/>
    <path class="cls-2" d="M226.32,155.97c-11.68-2.12-22.49-6.91-31.85-14.05-16.03-12.24-32.15-18.97-52.98-14.77-11.72,2.36-23.63-2.88-32.65-11.07-10.87-9.87-22.65-12.41-37-10.49-16.95,2.26-34.08,1.27-50.13-5.89-3.76-1.68-9.27-2.54-8.99-8.24,0,0,13.36,12.04,40.07,6.97,24.61-4.67,47.76-6.45,68.64,11.97,27.49,24.25,29.29-22.19,86.41,32.99,6.22,6.01,12.56,9.92,18.47,12.57Z"/>
    <path class="cls-4" d="M218.15,164.11c-.91,1.35-2.53,2.27-3.88,3.19-9,6.13-18.12,12.07-27.35,18.18-10.11,4.95-20.08,10.6-30.63,14.84-34.73,13.99-75.85,1.27-99.19-30.3-12.6-17.03-20.36-36.72-29.97-55.38-.99-1.91-1.37-3.91,.25-5.66,1.85-1.99,4.18-1.34,6.39-.78,15.57,3.88,30.59,9.09,43.92,18.36,6.03,4.19,12.1,8.32,18.22,12.37,17.61,11.67,36.64,16.57,57.8,12.93,19.84-3.42,39.37-.8,58.61,4.6,2.67,.75,5.81,1.11,6.45,4.44,.25,1.33-.04,2.36-.62,3.22Z"/>
    <path class="cls-2" d="M218.15,164.11c-.91,1.35-2.53,2.27-3.88,3.19-9,6.13-18.12,12.07-27.35,18.18-10.11,4.95-20.08,10.6-30.63,14.84-34.73,13.99-75.85,1.27-99.19-30.3-12.6-17.03-20.36-36.72-29.97-55.38-.99-1.91-1.37-3.91,.25-5.66,0,0,38.68,75.12,75.79,82.98,31.89,6.76,83.22-30,114.99-27.84Z"/>
  </g>
  <g>
    <path class="cls-1" d="M252.01,139.18c-1,3.99-4.93,3.88-8.12,4.1-3.32,.25-6.6,.3-9.86,.13-12.38-.6-24.23-4.08-34.91-10.2-1.5-.86-3-1.68-4.49-2.47-.73-.38-1.46-.75-2.19-1.12-2.1-1.03-4.2-1.98-6.3-2.84-.36-.15-.73-.3-1.1-.43-.55-.23-1.1-.43-1.65-.63-.65-.25-1.31-.48-1.97-.7l-.22-.07c-.54-.18-1.08-.35-1.63-.51-.64-.2-1.28-.39-1.91-.56-.29-.09-.57-.16-.87-.23-.43-.11-.85-.22-1.27-.31-.29-.08-.59-.14-.88-.2-.49-.11-.99-.21-1.47-.31-1.57-.31-3.13-.56-4.71-.74-.39-.04-.8-.09-1.19-.12-.39-.04-.79-.08-1.19-.1-.41-.04-.81-.06-1.21-.07-.4-.02-.8-.05-1.2-.05-.4-.01-.81-.03-1.2-.03-.61,0-1.22,0-1.83,.02s-1.22,.04-1.84,.07c-.57,.04-1.15,.08-1.73,.13-.67,.06-1.33,.13-1.99,.2-1.66,.2-3.34,.49-5.04,.85-.47,.11-.94,.2-1.42,.32-.38,.09-.77,.18-1.15,.29-.43,.11-.86,.22-1.3,.34-.62,.18-1.24,.37-1.87,.55-.06,.01-.11,.04-.17,.05-.64,.19-1.27,.4-1.9,.62-11.82,4.04-24.86,.24-35.32-7.01-.48-.34-.97-.65-1.45-.97-.97-.63-1.94-1.22-2.9-1.75-.97-.53-1.94-1.02-2.91-1.48s-1.95-.86-2.92-1.23c-.49-.18-.98-.36-1.46-.52-.55-.18-1.1-.36-1.66-.51h-.02c-.44-.13-.88-.26-1.33-.36-.18-.05-.38-.09-.56-.13-.48-.12-.96-.22-1.45-.32-.51-.09-1.02-.18-1.53-.26-.15-.03-.29-.05-.45-.07-.39-.05-.77-.1-1.15-.14-.65-.09-1.31-.14-1.97-.18-.52-.03-1.04-.06-1.55-.07-.15,0-.31-.02-.47-.01-.37-.01-.73-.01-1.1-.01-2.43,.01-4.93,.23-7.46,.61-1.2,.18-2.43,.41-3.67,.68-1.23,.26-2.48,.57-3.74,.91-3.03,.81-6.08,1.54-9.15,2.13-1.02,.2-2.04,.39-3.07,.55-2.57,.42-5.14,.76-7.72,1.01-.52,.05-1.03,.1-1.55,.13-1.04,.08-2.07,.14-3.1,.2-.58,.03-1.17,.05-1.76,.06-1.22,.04-2.44,.06-3.66,.03-.54,0-1.07-.02-1.61-.03-.59-.02-1.17-.04-1.76-.07-.93-.04-1.87-.11-2.8-.19-.43-.03-.87-.07-1.29-.11-.67-.06-1.35-.13-2.03-.22-.44-.05-.87-.1-1.3-.17-.36-.04-.73-.1-1.08-.15-.46-.07-.91-.14-1.37-.22-.38-.06-.75-.12-1.13-.19-1.62-.3-3.23-.64-4.84-1.04-.59-.14-1.17-.29-1.75-.45-.58-.16-1.17-.32-1.76-.5-4.12-1.23-9.95-1.37-10.43-7.31-.03-.34-.03-.67,0-.97,.47-.26,13.2-7.1,22.79-15.14,1.75-1.32,3.5-2.65,5.26-3.97,4.18-2.78,8.07-5.55,11.57-8.21,0,0,.01,0,.04-.03,.77-.59,1.52-1.17,2.25-1.75,4.04-3.43,7.7-6.7,11.25-9.75l.62-.53,.06-.06c6.33-5.43,12.26-10.1,19.11-13.57,17.46-8.86,31.4-6.74,45.51,6.85,1.66,1.6,3.55,3.01,4.89,4.83,5.28,7.09,10.84,6.24,17.81,2.06,24.1-14.5,41.62-11.37,59.35,10.63,5.36,6.66,9.99,13.9,14.75,21.02,0,.01,0,.02,0,.02,.98,1.46,1.95,2.92,2.94,4.37,.42,.61,.85,1.23,1.28,1.84,0,0,0,.01,.01,.03,3.07,4.42,6.2,8.79,9.55,12.96,5.62,7.41,12.82,16.43,18.95,22.72v.02Z"/>
    <path class="cls-1" d="M226.68,152.96c-.76,1.52-2.31,2.7-3.59,3.83-8.48,7.57-17.12,14.97-25.84,22.57-9.79,6.51-19.35,13.72-29.69,19.55-34.05,19.23-78.38,11.69-106.87-17.83-15.37-15.92-26.1-35.24-38.61-53.26-1.29-1.84-1.96-3.86-.51-5.9,1.64-2.32,4.14-1.96,6.52-1.69,16.66,1.89,32.92,5.24,48,13.01,6.82,3.51,13.67,6.96,20.56,10.32,19.83,9.68,40.21,12.15,61.63,5.49,20.08-6.25,40.67-6.21,61.32-3.24,2.87,.42,6.17,.36,7.29,3.72,.44,1.34,.28,2.45-.2,3.42Z"/>
  </g>
</svg>